<svg width="20" height="17" viewBox="0 0 20 17" fill="none" xmlns="http://www.w3.org/2000/svg">
<path d="M9.68293 0C8.46381 0 7.37909 0.715464 6.97592 1.78866H1.04353V3.57732H2.9154L0.0836006 9.83764C-0.367568 11.6263 1.04353 12.5206 3.44336 12.5206C5.8432 12.5206 7.34069 11.6263 6.80313 9.83764L3.97133 3.57732H6.96632C7.28309 4.3375 7.90705 4.91882 8.72299 5.21395V15.2036H0.0836006V16.9923H19.2823V15.2036H10.6429V5.205C11.4588 4.91882 12.0828 4.3375 12.3899 3.57732H15.3945L12.5627 9.83764C12.1116 11.6263 13.5227 12.5206 15.9225 12.5206C18.3223 12.5206 19.8198 11.6263 19.2823 9.83764L16.4504 3.57732H18.3223V1.78866H12.3995C11.9868 0.715464 10.902 0 9.68293 0ZM9.68293 1.78866C9.93752 1.78866 10.1817 1.88288 10.3617 2.0506C10.5417 2.21832 10.6429 2.4458 10.6429 2.68299C10.6429 2.92018 10.5417 3.14766 10.3617 3.31538C10.1817 3.4831 9.93752 3.57732 9.68293 3.57732C9.42834 3.57732 9.18417 3.4831 9.00415 3.31538C8.82413 3.14766 8.72299 2.92018 8.72299 2.68299C8.72299 2.4458 8.82413 2.21832 9.00415 2.0506C9.18417 1.88288 9.42834 1.78866 9.68293 1.78866ZM3.44336 6.4839L4.88326 9.83764H2.00347L3.44336 6.4839ZM15.9225 6.4839L17.3624 9.83764H14.4826L15.9225 6.4839Z" fill="white" fill-opacity="0.2"/>
</svg>
