<svg width="25" height="17" viewBox="0 0 25 17" fill="none" xmlns="http://www.w3.org/2000/svg">
<path d="M2.80667 9.90264L2.04121 8.33907H7.39939L6.78703 6.77549H1.78606L1.02061 5.21192H8.98133L8.36897 3.64834H0.877721L0 2.08477H3.82727C3.82727 1.53185 4.04233 1.00158 4.42513 0.610614C4.80793 0.219644 5.32712 0 5.86848 0H18.1158V4.16953H21.1776L24.2394 8.33907V13.551H22.1982C22.1982 14.3804 21.8756 15.1758 21.3014 15.7622C20.7272 16.3487 19.9484 16.6781 19.1364 16.6781C18.3243 16.6781 17.5455 16.3487 16.9713 15.7622C16.3971 15.1758 16.0745 14.3804 16.0745 13.551H11.9921C11.9921 14.3804 11.6695 15.1758 11.0953 15.7622C10.5211 16.3487 9.74235 16.6781 8.9303 16.6781C8.11826 16.6781 7.33947 16.3487 6.76527 15.7622C6.19107 15.1758 5.86848 14.3804 5.86848 13.551H3.82727V9.90264H2.80667ZM19.1364 15.1146C19.5424 15.1146 19.9318 14.9498 20.2189 14.6566C20.506 14.3634 20.6673 13.9657 20.6673 13.551C20.6673 13.1363 20.506 12.7386 20.2189 12.4454C19.9318 12.1521 19.5424 11.9874 19.1364 11.9874C18.7303 11.9874 18.3409 12.1521 18.0538 12.4454C17.7667 12.7386 17.6055 13.1363 17.6055 13.551C17.6055 13.9657 17.7667 14.3634 18.0538 14.6566C18.3409 14.9498 18.7303 15.1146 19.1364 15.1146ZM20.6673 5.73311H18.1158V8.33907H22.6677L20.6673 5.73311ZM8.9303 15.1146C9.33632 15.1146 9.72572 14.9498 10.0128 14.6566C10.2999 14.3634 10.4612 13.9657 10.4612 13.551C10.4612 13.1363 10.2999 12.7386 10.0128 12.4454C9.72572 12.1521 9.33632 11.9874 8.9303 11.9874C8.52428 11.9874 8.13489 12.1521 7.84779 12.4454C7.56069 12.7386 7.39939 13.1363 7.39939 13.551C7.39939 13.9657 7.56069 14.3634 7.84779 14.6566C8.13489 14.9498 8.52428 15.1146 8.9303 15.1146Z" transform="translate(0 0.126953)" fill="#27AE60"/>
</svg>
