<svg width="18" height="18" viewBox="0 0 18 18" fill="none" xmlns="http://www.w3.org/2000/svg">
<path d="M2.0918 8.59766C2.09961 8.13281 2.15234 7.76562 2.25 7.49609C2.34766 7.22656 2.54687 6.92773 2.84766 6.59961L3.61523 5.80859C3.94336 5.4375 4.10742 5.03906 4.10742 4.61328C4.10742 4.20312 4 3.88281 3.78516 3.65234C3.57031 3.41797 3.25781 3.30078 2.84766 3.30078C2.44922 3.30078 2.12891 3.40625 1.88672 3.61719C1.64453 3.82812 1.52344 4.11133 1.52344 4.4668H0.439453C0.447266 3.83398 0.671875 3.32422 1.11328 2.9375C1.55859 2.54688 2.13672 2.35156 2.84766 2.35156C3.58594 2.35156 4.16016 2.55078 4.57031 2.94922C4.98438 3.34375 5.19141 3.88672 5.19141 4.57812C5.19141 5.26172 4.875 5.93555 4.24219 6.59961L3.60352 7.23242C3.31836 7.54883 3.17578 8.00391 3.17578 8.59766H2.0918ZM2.04492 10.4551C2.04492 10.2793 2.09766 10.1328 2.20312 10.0156C2.3125 9.89453 2.47266 9.83398 2.68359 9.83398C2.89453 9.83398 3.05469 9.89453 3.16406 10.0156C3.27344 10.1328 3.32812 10.2793 3.32812 10.4551C3.32812 10.6309 3.27344 10.7773 3.16406 10.8945C3.05469 11.0078 2.89453 11.0645 2.68359 11.0645C2.47266 11.0645 2.3125 11.0078 2.20312 10.8945C2.09766 10.7773 2.04492 10.6309 2.04492 10.4551Z" transform="translate(5.83337 2.53857)" fill="#8A8A8A"/>
<path d="M17 8.88461C17 13.5225 13.2992 17.2692 8.75 17.2692C4.20082 17.2692 0.5 13.5225 0.5 8.88461C0.5 4.2467 4.20082 0.5 8.75 0.5C13.2992 0.5 17 4.2467 17 8.88461Z" stroke="#858585"/>
</svg>
