<svg width="16" height="18" viewBox="0 0 16 18" fill="none" xmlns="http://www.w3.org/2000/svg">
<path d="M9.77778 16.2C9.77778 16.6774 9.59048 17.1352 9.25708 17.4728C8.92368 17.8104 8.4715 18 8 18C7.5285 18 7.07632 17.8104 6.74292 17.4728C6.40952 17.1352 6.22222 16.6774 6.22222 16.2H9.77778ZM8 0C8.23575 0 8.46184 0.0948211 8.62854 0.263604C8.79524 0.432387 8.88889 0.661305 8.88889 0.9V1.872C11.4133 2.304 13.3333 4.527 13.3333 7.2V12.6L16 15.3H0L2.66667 12.6V7.2C2.66667 4.527 4.58667 2.304 7.11111 1.872V0.9C7.11111 0.661305 7.20476 0.432387 7.37146 0.263604C7.53816 0.0948211 7.76425 0 8 0Z" fill="white" fill-opacity="0.2"/>
</svg>
