<svg width="20" height="21" viewBox="0 0 20 21" fill="none" xmlns="http://www.w3.org/2000/svg">
<path d="M9.18545 0C6.74932 0 4.41296 0.9884 2.69036 2.74776C0.96775 4.50713 0 6.89334 0 9.38145H8.16485V17.7205C8.16485 17.997 8.05732 18.2621 7.86592 18.4576C7.67452 18.6531 7.41492 18.7629 7.14424 18.7629C6.87356 18.7629 6.61397 18.6531 6.42256 18.4576C6.23116 18.2621 6.12364 17.997 6.12364 17.7205H4.08242C4.08242 18.5499 4.40501 19.3453 4.97921 19.9317C5.55341 20.5182 6.3322 20.8477 7.14424 20.8477C7.95629 20.8477 8.73507 20.5182 9.30927 19.9317C9.88348 19.3453 10.2061 18.5499 10.2061 17.7205V9.38145H18.3709C18.3709 6.89334 17.4032 4.50713 15.6806 2.74776C13.9579 0.9884 11.6216 0 9.18545 0Z" transform="translate(0.803711)" fill="#27AE60"/>
</svg>
